<svg id="visual" viewBox="0 0 900 450" width="900" height="450" xmlns="http://www.w3.org/2000/svg" xmlns:xlink="http://www.w3.org/1999/xlink" version="1.1"><rect x="0" y="0" width="900" height="450" fill="#001220"></rect><defs><linearGradient id="grad1_0" x1="50%" y1="0%" x2="100%" y2="100%"><stop offset="10%" stop-color="#001220" stop-opacity="1"></stop><stop offset="90%" stop-color="#001220" stop-opacity="1"></stop></linearGradient></defs><defs><linearGradient id="grad2_0" x1="0%" y1="0%" x2="50%" y2="100%"><stop offset="10%" stop-color="#001220" stop-opacity="1"></stop><stop offset="90%" stop-color="#001220" stop-opacity="1"></stop></linearGradient></defs><g transform="translate(900, 0)"><path d="M0 360C-41.7 362.3 -83.3 364.7 -111.2 342.4C-139.2 320.1 -153.4 273.2 -180.5 248.4C-207.5 223.6 -247.5 220.8 -277.5 201.6C-307.5 182.4 -327.4 146.7 -339.5 110.3C-351.6 74 -355.8 37 -360 0L0 0Z" fill="#3c6afa"></path></g><g transform="translate(0, 450)"><path d="M0 -360C32.8 -342.1 65.6 -324.1 101.7 -312.9C137.8 -301.7 177.2 -297.1 199.3 -274.3C221.3 -251.4 225.9 -210.2 250.8 -182.2C275.7 -154.2 320.8 -139.4 342.4 -111.2C364 -83.1 362 -41.5 360 0L0 0Z" fill="#3c6afa"></path></g></svg>