<svg id="visual" viewBox="0 0 900 450" width="900" height="450" xmlns="http://www.w3.org/2000/svg" xmlns:xlink="http://www.w3.org/1999/xlink" version="1.1"><rect x="0" y="0" width="900" height="450" fill="#001220"></rect><defs><linearGradient id="grad1_0" x1="50%" y1="0%" x2="100%" y2="100%"><stop offset="10%" stop-color="#001220" stop-opacity="1"></stop><stop offset="90%" stop-color="#001220" stop-opacity="1"></stop></linearGradient></defs><defs><linearGradient id="grad2_0" x1="0%" y1="0%" x2="50%" y2="100%"><stop offset="10%" stop-color="#001220" stop-opacity="1"></stop><stop offset="90%" stop-color="#001220" stop-opacity="1"></stop></linearGradient></defs><g transform="translate(900, 0)"><path d="M0 405C-42.8 398.5 -85.5 391.9 -120.2 370C-154.9 348 -181.5 310.7 -202.8 279.1C-224.1 247.5 -240.2 221.7 -274.3 199.3C-308.3 176.8 -360.4 157.8 -385.2 125.2C-410 92.5 -407.5 46.3 -405 0L0 0Z" fill="#fa3c3c"></path></g><g transform="translate(0, 450)"><path d="M0 -405C40.1 -397.3 80.2 -389.5 122.7 -377.6C165.2 -365.6 210.1 -349.4 228.1 -313.9C246.1 -278.4 237.1 -223.5 264.5 -192.2C292 -160.9 355.7 -153.3 385.2 -125.2C414.6 -97.1 409.8 -48.5 405 0L0 0Z" fill="#fa3c3c"></path></g></svg>